<?xml version="1.0" encoding="UTF-8"?>
<!DOCTYPE svg PUBLIC "-//W3C//DTD SVG 1.1//EN" "http://www.w3.org/Graphics/SVG/1.1/DTD/svg11.dtd">
<svg xmlns="http://www.w3.org/2000/svg" version="1.1"  style="shape-rendering:geometricPrecision; text-rendering:geometricPrecision; image-rendering:optimizeQuality; fill-rule:evenodd; clip-rule:evenodd" xmlns:xlink="http://www.w3.org/1999/xlink">
<g><path style="opacity:0.926" fill="#4bae4e" d="M 11.5,-0.5 C 14.5,-0.5 17.5,-0.5 20.5,-0.5C 22.1032,0.596413 23.6032,1.92975 25,3.5C 25.6622,2.01608 26.4955,0.682751 27.5,-0.5C 30.1667,-0.5 32.8333,-0.5 35.5,-0.5C 44.0189,4.74294 45.6855,11.7429 40.5,20.5C 42.8277,22.4935 45.161,24.4935 47.5,26.5C 47.5,27.8333 47.5,29.1667 47.5,30.5C 46.8333,30.5 46.5,30.8333 46.5,31.5C 45.5,31.5 44.5,31.5 43.5,31.5C 40.7334,26.1895 36.4001,24.0228 30.5,25C 33.0711,27.2558 33.0711,29.4225 30.5,31.5C 29.8333,31.5 29.1667,31.5 28.5,31.5C 22.8508,24.1065 15.8508,22.6065 7.5,27C 5.95862,28.3712 4.62529,29.8712 3.5,31.5C 2.83333,31.5 2.16667,31.5 1.5,31.5C 1.16667,30.5 0.5,29.8333 -0.5,29.5C -0.5,28.8333 -0.5,28.1667 -0.5,27.5C 1.47889,24.8544 3.81223,22.5211 6.5,20.5C 1.44944,11.8172 3.11611,4.81723 11.5,-0.5 Z M 14.5,4.5 C 19.473,4.65086 22.473,7.15086 23.5,12C 21.9722,17.8527 18.3055,19.8527 12.5,18C 7.07814,12.656 7.7448,8.15603 14.5,4.5 Z M 27.5,5.5 C 36.0289,3.86069 39.1956,7.19402 37,15.5C 35.0407,17.788 32.5407,19.1213 29.5,19.5C 28.6193,22.8528 26.9526,23.3528 24.5,21C 28.5083,16.4535 29.5083,11.2868 27.5,5.5 Z"/></g>
</svg>
